<?xml version="1.0" encoding="utf-8"?>
<!-- Generator: Adobe Illustrator 19.2.1, SVG Export Plug-In . SVG Version: 6.00 Build 0)  -->
<svg version="1.1" id="Layer_1" 
	xmlns="http://www.w3.org/2000/svg" 
	xmlns:xlink="http://www.w3.org/1999/xlink" x="0px" y="0px" viewBox="0 0 1024 1024" style="enable-background:new 0 0 1024 1024;" xml:space="preserve">
	<style type="text/css">	.st0{display:none;fill:#F9BF00;}	.st1{fill:#FFFFFF;}	.st2{fill:#F4BF1C;}	.st3{fill:#FFFEF9;}</style>
	<circle class="st0" cx="513.1" cy="513.5" r="508.4"/>
	<path class="st1" d="M244.9,429.4L358.5,393l-81.2-81.2l-63.6,20.3c-4.5,1.4-6.9,6.2-5.5,10.7l25.9,81	C235.6,428.3,240.4,430.8,244.9,429.4z"/>
	<polygon class="st1" points="503.5,346.6 422.3,265.5 332,294.4 413.2,375.5 "/>
	<path class="st2" d="M1019.9,515.7c0.4,277.2-226.5,505.8-502,505.9C233.1,1021.7,5.5,796.8,5.4,515.1	C5.3,236.3,233.3,7.7,512.1,7.1C792.6,6.5,1019.5,233.8,1019.9,515.7z M445.8,219.8c-98.2,0.7-175.4,26.2-233.1,72	c-63.8,50.7-89,122.4-66.3,193c14.7,45.9,46,79.6,85.5,105.6c14.2,9.3,17.8,17.4,7.9,32.5c-10.8,16.6-23.3,31.6-36.3,46.4	c-6.2,7-13.9,14.4-8.7,24.8c6.2,12.4,17.9,8.1,27.4,5.9c35.1-8.1,70.5-16.8,100.6-37.1c26-17.6,51.9-18,82-16.1	c105,6.7,201.2-17.4,275.4-97.6c61.2-66.1,63.1-155.5,5.1-224.1C618.9,246.6,528.4,223.4,445.8,219.8z M887.6,537.1	c-0.8-66.9-40.8-117-99.8-155.5c-3.1-2-7.4-2.3-11.1-3.4c0.4,4.1,0.5,8.3,1.2,12.4c17.2,98.2-21,174-96.8,233	c-73,56.9-157.7,79.6-249.4,79.6c-6.5,0-18.6,1.1-18.6,2.3c-0.7,9.9,9.6,10,15.6,13c69.5,35.6,143.9,41.2,220,33.7	c14.7-1.5,25.9,1.6,38.2,9.2c36.6,22.7,76,38.7,118.9,45.3c9.3,1.4,19.4,5.7,25.5-4.6c6.9-11.7-3.4-18.7-9.7-26.5	c-9.7-11.9-19.7-23.7-29.2-35.7c-14.4-18.2-15.6-31.5,7.4-46.9C851.8,657.9,885.7,610.2,887.6,537.1z"/>
	<path class="st3" d="M445.8,219.8c82.6,3.6,173.1,26.8,239.5,105.2c58.1,68.6,56.1,158-5.1,224.1c-74.2,80.2-170.4,104.3-275.4,97.6	c-30.1-1.9-56-1.5-82,16.1c-30,20.3-65.5,29-100.6,37.1c-9.5,2.2-21.2,6.5-27.4-5.9c-5.3-10.4,2.5-17.8,8.7-24.8	c13-14.7,25.5-29.7,36.3-46.4c9.9-15.1,6.3-23.2-7.9-32.5c-39.5-26-70.7-59.7-85.5-105.6c-22.7-70.6,2.5-142.3,66.3-193	C270.4,246,347.6,220.5,445.8,219.8z M311.3,606.1c27.6-21,57.9-14.8,89.6-12.2c87.4,7,169.5-9.1,234.5-73.6	c55-54.5,51.6-126.4-5.7-178.3c-41.4-37.5-90.9-57.6-145.4-64.9c-94.9-12.7-183.3,2.5-255,71.2c-50.7,48.6-52,111.8-6.9,165.7	c18.5,22,41.8,38.4,67.3,50.6c18.5,8.8,25.4,20,19.2,39.2c-0.8,1-2.6,2.7-2.4,3C308.3,609.5,310,608.5,311.3,606.1z"/>
	<path class="st3" d="M887.6,537.1c-2,73.2-35.9,120.9-87.8,155.9c-22.9,15.4-21.8,28.7-7.4,46.9c9.6,12,19.5,23.8,29.2,35.7	c6.3,7.7,16.6,14.7,9.7,26.5c-6.1,10.3-16.3,6-25.5,4.6c-42.9-6.6-82.4-22.5-118.9-45.3c-12.3-7.6-23.5-10.7-38.2-9.2	c-76,7.5-150.5,1.9-220-33.7c-5.9-3-16.2-3.1-15.6-13c0.1-1.2,12.1-2.3,18.6-2.3c91.6,0,176.3-22.7,249.4-79.6	c75.8-59,114-134.8,96.8-233c-0.7-4.1-0.8-8.2-1.2-12.4c3.7,1.1,8,1.4,11.1,3.4C846.8,420,886.8,470.2,887.6,537.1z"/>
	<path class="st2" d="M308.9,603.7c6.2-19.3-0.7-30.4-19.2-39.2c-25.5-12.2-48.8-28.6-67.3-50.6c-45.1-53.8-43.8-117.1,6.9-165.7	c71.7-68.7,160.1-84,255-71.2c54.5,7.3,103.9,27.4,145.4,64.9c57.2,51.8,60.6,123.7,5.7,178.3c-65,64.5-147.1,80.6-234.5,73.6	c-31.6-2.5-61.9-8.7-89.6,12.2C310.5,605.3,309.7,604.5,308.9,603.7z"/>
	<path class="st2" d="M311.3,606.1c-1.3,2.4-2.9,3.5-4.8,0.7c-0.2-0.3,1.5-2,2.4-3C309.7,604.5,310.5,605.3,311.3,606.1z"/>
</svg>