<?xml version="1.0" encoding="utf-8"?>
<!-- Generator: Adobe Illustrator 19.2.1, SVG Export Plug-In . SVG Version: 6.00 Build 0)  -->
<svg version="1.1" id="Layer_1" xmlns="http://www.w3.org/2000/svg" xmlns:xlink="http://www.w3.org/1999/xlink" x="0px" y="0px"
	 viewBox="0 0 1024 1024" style="enable-background:new 0 0 1024 1024;" xml:space="preserve">
<style type="text/css">
	.st0{fill:#FFFFFF;stroke:#000000;stroke-miterlimit:10;}
	.st1{fill:#8DD431;}
	.st2{display:none;}
</style>
<rect x="199" y="198" class="st0" width="637" height="643"/>
<path class="st1" d="M513.1,5.1C232.3,5.1,4.6,232.7,4.6,513.5s227.6,508.4,508.4,508.4s508.4-227.6,508.4-508.4
	S793.9,5.1,513.1,5.1z M634.8,275.6c15.4-15.4,34-23.1,55.8-23.1s40.4,7.7,55.8,23.1c15.4,15.4,23.1,34,23.1,55.8
	s-7.7,40.4-23.1,55.8c-15.4,15.4-34,23.1-55.8,23.1s-40.4-7.7-55.8-23.1c-15.4-15.4-23.1-34-23.1-55.8S619.3,291,634.8,275.6z
	 M513.1,331.3c32.7,0,60.5,11.6,83.6,34.7s34.7,51,34.7,83.6c0,32.7-11.6,60.5-34.7,83.6c-23.1,23.1-51,34.7-83.6,34.7
	c-32.7,0-60.5-11.6-83.6-34.7c-23.1-23.1-34.7-51-34.7-83.6c0-32.7,11.6-60.5,34.7-83.6C452.5,342.9,480.4,331.3,513.1,331.3z
	 M279.9,275.6c15.4-15.4,34-23.1,55.8-23.1s40.4,7.7,55.8,23.1s23.1,34,23.1,55.8s-7.7,40.4-23.1,55.8s-34,23.1-55.8,23.1
	s-40.4-7.7-55.8-23.1s-23.1-34-23.1-55.8S264.4,291,279.9,275.6z M234.6,555.5c-11.5-8.3-17.3-20.5-17.3-36.5
	c0-72.5,12.7-108.7,38.2-108.7c1.2,0,5.7,2.2,13.4,6.5c7.7,4.3,17.7,8.7,30,13.1s24.5,6.6,36.7,6.6c13.8,0,27.4-2.4,41-7.1
	c-1,7.6-1.5,14.4-1.5,20.3c0,28.5,8.3,54.8,25,78.9c-33.3,1-60.5,14.2-81.6,39.4h-41.3C260.2,567.9,246.1,563.8,234.6,555.5z
	 M707.5,783.1c-15,14.3-34.9,21.4-59.8,21.4H378.4c-24.9,0-44.8-7.1-59.8-21.4c-15-14.3-22.5-33.7-22.5-58.4
	c0-10.9,0.4-21.5,1.1-31.9s2.2-21.6,4.3-33.6c2.2-12,4.9-23.2,8.2-33.4c3.3-10.3,7.7-20.3,13.2-30c5.5-9.8,11.9-18.1,19.1-25
	s16-12.4,26.3-16.5c10.4-4.1,21.8-6.2,34.4-6.2c2.1,0,6.5,2.2,13.2,6.6c6.8,4.4,14.3,9.3,22.5,14.8c8.2,5.4,19.2,10.4,33,14.8
	c13.8,4.4,27.6,6.6,41.6,6.6c14,0,27.8-2.2,41.6-6.6c13.8-4.4,24.7-9.3,33-14.8c8.2-5.4,15.7-10.4,22.5-14.8
	c6.8-4.4,11.2-6.6,13.2-6.6c12.5,0,24,2.1,34.4,6.2c10.4,4.1,19.2,9.6,26.3,16.5c7.2,6.9,13.6,15.2,19.1,25s10,19.8,13.2,30
	c3.3,10.3,6,21.4,8.2,33.4s3.6,23.2,4.3,33.6c0.7,10.4,1.1,21,1.1,31.9C729.9,749.4,722.5,768.9,707.5,783.1z M791.6,555.5
	c-11.5,8.3-25.7,12.5-42.5,12.5h-41.3c-21.2-25.3-48.4-38.4-81.6-39.4c16.6-24,25-50.3,25-78.9c0-6-0.5-12.7-1.5-20.3
	c13.6,4.7,27.2,7.1,41,7.1c12.1,0,24.3-2.2,36.7-6.6c12.3-4.4,22.3-8.8,30-13.1c7.7-4.3,12.2-6.5,13.4-6.5
	c25.5,0,38.2,36.3,38.2,108.7C808.8,535,803.1,547.2,791.6,555.5z"/>
<path class="st2" d="M770.6,410.2c-1.2,0-5.7,2.2-13.4,6.5s-17.7,8.7-30,13.1s-24.5,6.6-36.7,6.6c-13.8,0-27.4-2.4-41-7.1
	c1,7.6,1.5,14.4,1.5,20.3c0,28.5-8.3,54.8-25,78.9c33.3,1,60.5,14.2,81.6,39.4H749c16.8,0,31-4.2,42.5-12.5s17.3-20.5,17.3-36.5
	C808.8,446.5,796.1,410.2,770.6,410.2z"/>
<path class="st2" d="M690.5,252.5c-21.8,0-40.4,7.7-55.8,23.1c-15.4,15.4-23.1,34-23.1,55.8s7.7,40.4,23.1,55.8
	c15.4,15.4,34,23.1,55.8,23.1s40.4-7.7,55.8-23.1c15.4-15.4,23.1-34,23.1-55.8s-7.7-40.4-23.1-55.8S712.3,252.5,690.5,252.5z"/>
<path class="st2" d="M596.7,366c-23.1-23.1-51-34.7-83.6-34.7c-32.7,0-60.5,11.6-83.6,34.7s-34.7,51-34.7,83.6
	c0,32.7,11.6,60.5,34.7,83.6c23.1,23.1,51,34.7,83.6,34.7c32.7,0,60.5-11.6,83.6-34.7c23.1-23.1,34.7-51,34.7-83.6
	S619.8,389.1,596.7,366z"/>
<path class="st2" d="M724.6,659.3c-2.2-12-4.9-23.2-8.2-33.4c-3.3-10.3-7.7-20.3-13.2-30c-5.5-9.8-11.9-18.1-19.1-25
	c-7.2-6.9-16-12.4-26.3-16.5c-10.4-4.1-21.8-6.2-34.4-6.2c-2.1,0-6.5,2.2-13.2,6.6c-6.8,4.4-14.3,9.3-22.5,14.8
	c-8.2,5.4-19.2,10.4-33,14.8c-13.8,4.4-27.6,6.6-41.6,6.6s-27.8-2.2-41.6-6.6c-13.8-4.4-24.7-9.3-33-14.8
	c-8.2-5.4-15.7-10.4-22.5-14.8c-6.8-4.4-11.2-6.6-13.2-6.6c-12.5,0-24,2.1-34.4,6.2c-10.4,4.1-19.2,9.6-26.3,16.5
	c-7.2,6.9-13.6,15.2-19.1,25s-10,19.8-13.2,30c-3.3,10.3-6,21.4-8.2,33.4s-3.6,23.2-4.3,33.6c-0.7,10.4-1.1,21-1.1,31.9
	c0,24.6,7.5,44.1,22.5,58.4c15,14.3,34.9,21.4,59.8,21.4h269.3c24.9,0,44.8-7.1,59.8-21.4c15-14.3,22.5-33.7,22.5-58.4
	c0-10.9-0.4-21.5-1.1-31.9C728.1,682.5,726.7,671.3,724.6,659.3z"/>
<path class="st2" d="M376.6,429.3c-13.6,4.7-27.2,7.1-41,7.1c-12.1,0-24.3-2.2-36.7-6.6c-12.3-4.4-22.3-8.8-30-13.1
	c-7.7-4.3-12.2-6.5-13.4-6.5c-25.5,0-38.2,36.3-38.2,108.7c0,16,5.8,28.2,17.3,36.5s25.7,12.5,42.5,12.5h41.3
	c21.2-25.3,48.4-38.4,81.6-39.4c-16.6-24-25-50.3-25-78.9C375,443.7,375.6,436.9,376.6,429.3z"/>
<path class="st2" d="M391.4,275.6c-15.4-15.4-34-23.1-55.8-23.1s-40.4,7.7-55.8,23.1s-23.1,34-23.1,55.8s7.7,40.4,23.1,55.8
	s34,23.1,55.8,23.1s40.4-7.7,55.8-23.1s23.1-34,23.1-55.8S406.8,291,391.4,275.6z"/>
</svg>
