<?xml version="1.0" encoding="utf-8"?>
<!-- Generator: Adobe Illustrator 19.2.1, SVG Export Plug-In . SVG Version: 6.00 Build 0)  -->
<svg version="1.1" id="Layer_1" xmlns="http://www.w3.org/2000/svg" xmlns:xlink="http://www.w3.org/1999/xlink" x="0px" y="0px"
	 viewBox="0 0 1024 1024" style="enable-background:new 0 0 1024 1024;" xml:space="preserve">
<style type="text/css">
	.st0{fill:#177EE6;}
	.st1{fill:#FFFFFF;}
</style>
<circle class="st0" cx="513.1" cy="513.5" r="508.4"/>
<path class="st1" d="M482,472.1c0-79-64.1-143.1-143.1-143.1s-136.4,61.9-143.1,140.6c-10.2,120.2,81.1,220.8,191.9,252.8
	c-37.8-22.8-64.1-62.6-68.5-108.8c6.5,0.9,13,1.6,19.7,1.6C417.9,615.2,482,551.1,482,472.1z"/>
<path class="st1" d="M839.6,472.1c0-79-64.1-143.1-143.1-143.1c-79,0-136.4,61.9-143.1,140.6c-10.2,120.2,81.1,220.8,192,252.8
	c-37.8-22.8-64.1-62.6-68.5-108.8c6.5,0.9,13,1.6,19.7,1.6C775.5,615.2,839.6,551.1,839.6,472.1z"/>
</svg>
